{"title":"Starship Troopers OVA (Uchû no senshi) [recapstore]","uid":10284052,"size":449761436,"categoryP":"video","categoryS":"tv_shows","magnet":"?xt=urn:btih:7df816aaf87faf004df0976b5b14030e84e20e9b&amp;dn=Starship+Troopers+OVA+%28Uch%26ucirc%3B+no+senshi%29+%5Brecapstore%5D&amp;tr=udp%3A%2F%2Ftracker.openbittorrent.com%3A80&amp;tr=udp%3A%2F%2Fopen.demonii.com%3A1337&amp;tr=udp%3A%2F%2Ftracker.coppersurfer.tk%3A6969&amp;tr=udp%3A%2F%2Fexodus.desync.com%3A6969","seeders":6,"leechers":0,"uploader":"recapstore","files":8,"time":1401753587,"description":"428MB for the full Starship Troopers OVA - the anime rendition of Robert Heinlein's sci-fi classic. Welcome to the Recapstore.\n\nPlease seed to at least a 1.5 ratio!\n\n(Wikipedia) Starship Troopers (Uchu no Senshi?, lit. &quot;Universal Warriors&quot;, &quot;Universal Soldiers&quot;, or &quot;Soldier of Space&quot;) is a six-part anime OVA produced by Sunrise/Bandai Visual and released in 1988. It is based on the book Starship Troopers by Robert A. Heinlein that was published in 1959.\n\nSample mediainfo from episode 1:\n\nFormat                                   : MPEG-4\nFormat profile                           : Base Media / Version 2\nCodec ID                                 : mp42\nFile size                                : 67.3 MiB\nDuration                                 : 24mn 17s\nOverall bit rate mode                    : Variable\nOverall bit rate                         : 387 Kbps\nEncoded date                             : UTC 2012-10-23 03:50:52\nTagged date                              : UTC 2012-10-23 04:16:52\nWriting application                      : HandBrake 0.9.8 2012071700\nXtra                                     : WM/MediaClassPrimaryID\n\nVideo\nID                                       : 1\nFormat                                   : AVC\nFormat/Info                              : Advanced Video Codec\nFormat profile                           : &lt;a class=&quot;__cf_email__&quot; href=&quot;/cdn-cgi/l/email-protection&quot; data-cfemail=&quot;460e2f212e060a746874&quot;&gt;[email&amp;#160;protected]&lt;/a&gt;&lt;script cf-hash='f9e31' type=&quot;text/javascript&quot;&gt;\n/* &lt;![CDATA[ */!function(){try{var t=&quot;currentScript&quot;in document?document.currentScript:function(){for(var t=document.getElementsByTagName(&quot;script&quot;),e=t.length;e--;)if(t[e].getAttribute(&quot;cf-hash&quot;))return t[e]}();if(t&amp;&amp;t.previousSibling){var e,r,n,i,c=t.previousSibling,a=c.getAttribute(&quot;data-cfemail&quot;);if(a){for(e=&quot;&quot;,r=parseInt(a.substr(0,2),16),n=2;a.length-n;n+=2)i=parseInt(a.substr(n,2),16)^r,e+=String.fromCharCode(i);e=document.createTextNode(e),c.parentNode.replaceChild(e,c)}}}catch(u){}}();/* ]]&gt; */&lt;/script&gt;\nFormat settings, CABAC                   : Yes\nFormat settings, ReFrames                : 15 frames\nCodec ID                                 : avc1\nCodec ID/Info                            : Advanced Video Coding\nDuration                                 : 24mn 17s\nBit rate mode                            : Variable\nBit rate                                 : 319 Kbps\nWidth                                    : 352 pixels\nHeight                                   : 256 pixels\nDisplay aspect ratio                     : 4:3\nOriginal display aspect ratio            : 4:3\nFrame rate mode                          : Variable\nFrame rate                               : 23.976 fps\nMinimum frame rate                       : 23.480 fps\nMaximum frame rate                       : 24.510 fps\nColor space                              : YUV\nChroma subsampling                       : 4:2:0\nBit depth                                : 8 bits\nScan type                                : Progressive\nBits/(Pixel*Frame)                       : 0.148\nStream size                              : 55.4 MiB (82%)\nWriting library                          : x264 core 120\nEncoding settings                        : cabac=1 / ref=16 / deblock=1:2:2 / analyse=0x3:0x133 / me=tesa / subme=10 / psy=1 / psy_rd=1.20:0.20 / mixed_ref=1 / me_range=16 / chroma_me=1 / trellis=2 / 8x8dct=1 / cqm=0 / deadzone=21,11 / fast_pskip=1 / chroma_qp_offset=-3 / threads=6 / sliced_threads=0 / nr=0 / decimate=1 / interlaced=0 / bluray_compat=0 / constrained_intra=0 / bframes=16 / b_pyramid=1 / b_adapt=2 / b_bias=0 / direct=1 / weightb=1 / open_gop=0 / weightp=2 / keyint=240 / keyint_min=24 / scenecut=40 / intra_refresh=0 / rc_lookahead=40 / rc=crf / mbtree=1 / crf=20.0 / qcomp=0.60 / qpmin=3 / qpmax=69 / qpstep=4 / ip_ratio=1.40 / aq=1:2.00\nEncoded date                             : UTC 2012-10-23 03:50:52\nTagged date                              : UTC 2012-10-23 04:16:52\nColor primaries                          : BT.709\nTransfer characteristics                 : BT.709\nMatrix coefficients                      : BT.709\n\nAudio\nID                                       : 2\nFormat                                   : AAC\nFormat/Info                              : Advanced Audio Codec\nFormat profile                           : LC\nCodec ID                                 : 40\nDuration                                 : 24mn 17s\nBit rate mode                            : Variable\nBit rate                                 : 64.0 Kbps\nMaximum bit rate                         : 116 Kbps\nChannel(s)                               : 2 channels\nChannel positions                        : Front: L R\nSampling rate                            : 44.1 KHz\nCompression mode                         : Lossy\nDelay relative to video                  : 83ms\nStream size                              : 11.1 MiB (17%)\nEncoded date                             : UTC 2012-10-23 03:50:52\nTagged date                              : UTC 2012-10-23 04:16:51","torrent":{"xt":"urn:btih:7df816aaf87faf004df0976b5b14030e84e20e9b","amp;dn":"Starship+Troopers+OVA+%28Uch%26ucirc%3B+no+senshi%29+%5Brecapstore%5D","amp;tr":["udp%3A%2F%2Ftracker.openbittorrent.com%3A80","udp%3A%2F%2Fopen.demonii.com%3A1337","udp%3A%2F%2Ftracker.coppersurfer.tk%3A6969","udp%3A%2F%2Fexodus.desync.com%3A6969"],"infoHash":"7df816aaf87faf004df0976b5b14030e84e20e9b","infoHashBuffer":{"type":"Buffer","data":[125,248,22,170,248,127,175,0,77,240,151,107,91,20,3,14,132,226,14,155]},"announce":[],"urlList":[]}}